<svg width="853" height="122" viewBox="0 0 853 122" fill="none" xmlns="http://www.w3.org/2000/svg">
<path d="M0.140625 120V6.25H30.2188C43.5 6.25 54.0729 10.4688 61.9375 18.9062C69.8542 27.3438 73.8906 38.9062 74.0469 53.5938V72.0312C74.0469 86.9792 70.0885 98.724 62.1719 107.266C54.3073 115.755 43.4479 120 29.5938 120H0.140625ZM23.1094 25.3906V100.938H29.9844C37.6406 100.938 43.0312 98.9323 46.1562 94.9219C49.2812 90.8594 50.9219 83.8802 51.0781 73.9844V54.2188C51.0781 43.5938 49.5938 36.1979 46.625 32.0312C43.6562 27.8125 38.6042 25.599 31.4688 25.3906H23.1094ZM86.9375 75C86.9375 62.1875 89.9583 52.1354 96 44.8438C102.042 37.5521 110.401 33.9062 121.078 33.9062C131.859 33.9062 140.271 37.5521 146.312 44.8438C152.354 52.1354 155.375 62.2396 155.375 75.1562V80.5469C155.375 93.4115 152.38 103.464 146.391 110.703C140.401 117.943 132.016 121.562 121.234 121.562C110.401 121.562 101.964 117.943 95.9219 110.703C89.9323 103.411 86.9375 93.3073 86.9375 80.3906V75ZM109.125 80.5469C109.125 95.651 113.161 103.203 121.234 103.203C128.682 103.203 132.693 96.901 133.266 84.2969L133.344 75C133.344 67.2917 132.276 61.5885 130.141 57.8906C128.005 54.1406 124.984 52.2656 121.078 52.2656C117.328 52.2656 114.385 54.1406 112.25 57.8906C110.167 61.5885 109.125 67.2917 109.125 75V80.5469ZM244.203 77.7344L254.984 6.25H277.719L257.484 120H234.438L221.156 52.9688L208.031 120H184.906L164.594 6.25H187.484L198.188 77.6562L211.547 6.25H230.844L244.203 77.7344ZM310.609 42.8906C315.401 36.901 321.286 33.9062 328.266 33.9062C335.974 33.9062 341.833 36.6146 345.844 42.0312C349.854 47.4479 351.885 55.5208 351.938 66.25V120H329.75V66.4844C329.75 61.5365 328.969 57.9688 327.406 55.7812C325.896 53.5417 323.422 52.4219 319.984 52.4219C315.974 52.4219 312.849 54.2708 310.609 57.9688V120H288.5V0H310.609V42.8906ZM391 120H368.812V35.4688H391V120ZM367.797 13.5938C367.797 10.1562 368.891 7.34375 371.078 5.15625C373.266 2.96875 376.182 1.875 379.828 1.875C383.474 1.875 386.391 2.96875 388.578 5.15625C390.766 7.34375 391.859 10.1562 391.859 13.5938C391.859 16.9792 390.766 19.7917 388.578 22.0312C386.443 24.2708 383.526 25.3906 379.828 25.3906C376.13 25.3906 373.188 24.2708 371 22.0312C368.865 19.7917 367.797 16.9792 367.797 13.5938ZM431.312 120H409.125V0H431.312V120ZM482.562 121.562C471.208 121.562 462.354 118.177 456 111.406C449.646 104.635 446.469 94.9479 446.469 82.3438V75.625C446.469 62.2917 449.385 52.0052 455.219 44.7656C461.052 37.526 469.411 33.9062 480.297 33.9062C490.922 33.9062 498.917 37.3177 504.281 44.1406C509.646 50.9115 512.38 60.9635 512.484 74.2969V85.1562H468.5C468.812 91.4062 470.193 95.9896 472.641 98.9062C475.089 101.771 478.865 103.203 483.969 103.203C491.365 103.203 497.536 100.677 502.484 95.625L511.156 108.984C508.448 112.734 504.516 115.781 499.359 118.125C494.203 120.417 488.604 121.562 482.562 121.562ZM468.656 69.6875H490.766V67.6562C490.661 62.6042 489.828 58.776 488.266 56.1719C486.703 53.5677 483.995 52.2656 480.141 52.2656C476.286 52.2656 473.474 53.6458 471.703 56.4062C469.984 59.1667 468.969 63.5938 468.656 69.6875ZM628.266 120H561.234V104.375L592.016 65.2344C595.922 59.8177 598.786 55.0781 600.609 51.0156C602.484 46.901 603.422 42.9688 603.422 39.2188C603.422 34.1667 602.536 30.2083 600.766 27.3438C599.047 24.4792 596.547 23.0469 593.266 23.0469C589.672 23.0469 586.807 24.7135 584.672 28.0469C582.589 31.3802 581.547 36.0677 581.547 42.1094H559.359C559.359 35.1302 560.792 28.75 563.656 22.9688C566.573 17.1875 570.635 12.7083 575.844 9.53125C581.104 6.30208 587.042 4.6875 593.656 4.6875C603.812 4.6875 611.677 7.5 617.25 13.125C622.875 18.6979 625.688 26.6406 625.688 36.9531C625.688 43.3594 624.125 49.8698 621 56.4844C617.927 63.0469 612.328 71.1458 604.203 80.7812L589.594 101.641H628.266V120ZM708.266 72.9688C708.266 88.6979 705.401 100.729 699.672 109.062C693.995 117.396 685.87 121.562 675.297 121.562C664.828 121.562 656.729 117.526 651 109.453C645.323 101.328 642.38 89.7135 642.172 74.6094V53.125C642.172 37.4479 645.01 25.4688 650.688 17.1875C656.365 8.85417 664.516 4.6875 675.141 4.6875C685.766 4.6875 693.917 8.80208 699.594 17.0312C705.271 25.2604 708.161 37.0052 708.266 52.2656V72.9688ZM686.078 49.9219C686.078 40.9635 685.193 34.2448 683.422 29.7656C681.651 25.2865 678.891 23.0469 675.141 23.0469C668.109 23.0469 664.464 31.25 664.203 47.6562V76.0156C664.203 85.1823 665.089 92.0052 666.859 96.4844C668.682 100.964 671.495 103.203 675.297 103.203C678.891 103.203 681.547 101.12 683.266 96.9531C685.036 92.7344 685.974 86.3021 686.078 77.6562V49.9219ZM790.141 120H723.109V104.375L753.891 65.2344C757.797 59.8177 760.661 55.0781 762.484 51.0156C764.359 46.901 765.297 42.9688 765.297 39.2188C765.297 34.1667 764.411 30.2083 762.641 27.3438C760.922 24.4792 758.422 23.0469 755.141 23.0469C751.547 23.0469 748.682 24.7135 746.547 28.0469C744.464 31.3802 743.422 36.0677 743.422 42.1094H721.234C721.234 35.1302 722.667 28.75 725.531 22.9688C728.448 17.1875 732.51 12.7083 737.719 9.53125C742.979 6.30208 748.917 4.6875 755.531 4.6875C765.688 4.6875 773.552 7.5 779.125 13.125C784.75 18.6979 787.562 26.6406 787.562 36.9531C787.562 43.3594 786 49.8698 782.875 56.4844C779.802 63.0469 774.203 71.1458 766.078 80.7812L751.469 101.641H790.141V120ZM852.719 120H830.531V33.125L808.891 41.4844V23.0469L850.375 6.09375H852.719V120Z" fill="white"/>
</svg>
